<?xml version="1.0" encoding="UTF-8"?>
<svg version="1.1" xmlns="http://www.w3.org/2000/svg" width="152" height="152">
<path d="M0 0 C50.16 0 100.32 0 152 0 C152 50.16 152 100.32 152 152 C101.84 152 51.68 152 0 152 C0 101.84 0 51.68 0 0 Z " fill="#898D8E" transform="translate(0,0)"/>
<path d="M0 0 C7.99737402 5.4233483 14.92012373 14.006148 17.55859375 23.3984375 C19.41570817 34.3439083 18.09516885 43.19388814 13 53 C11.7949754 55.4100492 11.82693982 57.18978742 11.6875 59.875 C11.27919468 64.49148438 10.3778369 65.82688049 7 69 C6.31771063 71.31476088 5.87977871 73.59564509 5.4921875 75.9765625 C5 78 5 78 3 80 C1.33333333 80.66666667 -0.33333333 81.33333333 -2 82 C-4.22189824 84.22189824 -4.92598892 86.08482708 -6 89 C-6.99 89 -7.98 89 -9 89 C-9.3403125 90.175625 -9.3403125 90.175625 -9.6875 91.375 C-11 94 -11 94 -13.16796875 95.203125 C-16.62857391 96.17686769 -19.08018787 95.92098256 -22.625 95.375 C-23.75164062 95.21773438 -24.87828125 95.06046875 -26.0390625 94.8984375 C-29.4549076 93.86196735 -30.32854956 93.09856926 -32 90 C-32.90158338 87.35792679 -33.40690851 84.73734533 -34 82 C-34.886875 82.103125 -35.77375 82.20625 -36.6875 82.3125 C-40 82 -40 82 -42.75 79.9375 C-45.28203029 76.63179379 -45.90017219 73.9868758 -47 70 C-47.83972669 68.86877583 -48.71736449 67.76500026 -49.625 66.6875 C-52.48964794 62.96760934 -52.17738328 60.17074823 -51.9140625 55.625 C-52.03980432 51.78415889 -53.43452807 48.7781739 -55.02734375 45.32421875 C-58.4564751 37.13010971 -58.10738776 26.26314322 -55 18 C-49.92228853 7.681735 -41.89526245 -0.51254949 -30.890625 -4.37109375 C-19.98799665 -6.74315208 -9.68963448 -5.70660087 0 0 Z " fill="#111112" transform="translate(96,22)"/>
<path d="M0 0 C50.16 0 100.32 0 152 0 C152 50.16 152 100.32 152 152 C101.84 152 51.68 152 0 152 C0 101.84 0 51.68 0 0 Z M17 9 C17 14.28 17 19.56 17 25 C16.34 25 15.68 25 15 25 C15 20.38 15 15.76 15 11 C10.52725759 15.00192742 8.31637017 18.14252014 7.81720543 24.22880173 C7.73254912 26.94667906 7.71837092 29.65726868 7.7253418 32.37646484 C7.72023087 33.40812271 7.71511993 34.43978058 7.70985413 35.50270081 C7.69597951 38.90550575 7.6969134 42.30810766 7.69921875 45.7109375 C7.69533053 48.08216426 7.69099559 50.45339032 7.68623352 52.82461548 C7.67877579 57.79260517 7.67905929 62.76052379 7.68432617 67.72851562 C7.69011873 74.0859967 7.67319252 80.44318624 7.6499815 86.80061913 C7.63522907 91.69747613 7.63437456 96.59426317 7.63749123 101.49113846 C7.63697873 103.8346273 7.63175447 106.17812013 7.62167931 108.52158737 C7.60930395 111.80283135 7.61611375 115.08351074 7.62768555 118.36474609 C7.62004181 119.32708664 7.61239807 120.28942719 7.60452271 121.28092957 C7.67246808 130.02451857 9.62735554 136.62735554 16 143 C21.77950184 147.06353728 26.13772819 147.58669519 33.10693359 147.54931641 C34.59370857 147.5646492 34.59370857 147.5646492 36.11051941 147.58029175 C39.37340735 147.60799642 42.63544622 147.6061771 45.8984375 147.6015625 C48.1761608 147.60934143 50.45388122 147.6180118 52.7315979 147.62753296 C57.50117403 147.64243869 62.27045403 147.64188878 67.04003906 147.63134766 C73.1388001 147.61976252 79.23634551 147.65361665 85.33490562 147.700037 C90.03798455 147.72956575 94.74077255 147.73124784 99.44392776 147.72501755 C101.69171175 147.72604134 103.93951258 147.7364675 106.18720627 147.75664139 C109.33702283 147.78144309 112.48449557 147.76774932 115.63427734 147.74462891 C116.55404861 147.75991638 117.47381989 147.77520386 118.42146301 147.79095459 C125.45902689 147.67733301 129.52858398 145.2749305 135 141 C135.9075 140.401875 136.815 139.80375 137.75 139.1875 C142.23401628 134.82803973 145.20090641 129.51623546 145.62145996 123.21984863 C145.6447393 121.49112229 145.64131184 119.76188953 145.61523438 118.03320312 C145.62355789 116.60451149 145.62355789 116.60451149 145.63204956 115.1469574 C145.64378027 112.02452962 145.61963682 108.90357448 145.59375 105.78125 C145.59203705 103.59607001 145.59210645 101.41088796 145.59387207 99.22570801 C145.59222254 94.65629287 145.57359155 90.08737052 145.54199219 85.51806641 C145.50231641 79.67748725 145.4979495 73.83755268 145.50545502 67.99686432 C145.5085328 63.48767247 145.49637538 58.97862399 145.47932434 54.46946716 C145.47232127 52.31661377 145.46916652 50.16374413 145.47001648 48.01087952 C145.46820742 44.99588978 145.44673082 41.98165506 145.41992188 38.96679688 C145.42285248 38.08757065 145.42578308 37.20834442 145.42880249 36.30247498 C145.30855677 27.48393951 143.31378581 20.31378581 137 14 C135.13355094 12.81669817 135.13355094 12.81669817 133 12 C131.52923759 10.99746941 131.52923759 10.99746941 130.02876282 9.97468567 C125.28705958 7.26286511 120.76189326 7.45957545 115.41479492 7.5300293 C113.85263245 7.5267437 113.85263245 7.5267437 112.25891113 7.52339172 C108.83243573 7.5210887 105.40682889 7.54728661 101.98046875 7.57421875 C99.59630099 7.57914379 97.21212936 7.58244193 94.82795715 7.58418274 C89.84066346 7.59181258 84.85365779 7.61234777 79.86645508 7.64331055 C73.46253756 7.68299203 67.05880687 7.70093761 60.65478039 7.71061993 C54.55498438 7.72057283 48.45523432 7.74046951 42.35546875 7.76171875 C41.18660818 7.7651145 40.01774761 7.76851025 38.81346703 7.7720089 C35.52166592 7.78354018 32.22998543 7.80205181 28.93823242 7.82299805 C27.95589127 7.82568695 26.97355011 7.82837585 25.96144104 7.83114624 C25.06849335 7.83830154 24.17554565 7.84545685 23.25553894 7.85282898 C22.08835972 7.8592392 22.08835972 7.8592392 20.89760113 7.86577892 C18.91183519 7.88450235 18.91183519 7.88450235 17 9 Z " fill="#E2E3E3" transform="translate(0,0)"/>
<path d="M0 0 C8.87731807 6.08546587 13.63275553 13.8982666 17 24 C17.97892831 30.99234509 16.28111736 36.93335667 13.91943359 43.44555664 C12.29626405 47.93815593 11.27400911 52.20857383 10.75 56.94921875 C9.57676008 60.15729665 7.90142954 61.26460195 5 63 C1.40625 63.3203125 1.40625 63.3203125 -2.5 63.125 C-7.27385487 62.90540268 -10.67809018 62.85566782 -15 65 C-15 65.99 -15 66.98 -15 68 C-13.96359375 67.91621094 -12.9271875 67.83242187 -11.859375 67.74609375 C-10.48960868 67.64289218 -9.11981553 67.54004626 -7.75 67.4375 C-6.72712891 67.35338867 -6.72712891 67.35338867 -5.68359375 67.26757812 C-2.2579419 67.01813746 0.72701177 66.86120255 4 68 C4 68.66 4 69.32 4 70 C1.69 70.99 -0.62 71.98 -3 73 C-3 73.66 -3 74.32 -3 75 C-5.97 75.495 -5.97 75.495 -9 76 C-9 76.66 -9 77.32 -9 78 C-8.01 77.67 -7.02 77.34 -6 77 C-6 78.32 -6 79.64 -6 81 C-12.65166268 83.95629452 -21.03425291 84.08305834 -28 82 C-27.67 80.35 -27.34 78.7 -27 77 C-28.98 76.34 -30.96 75.68 -33 75 C-33 73.68 -33 72.36 -33 71 C-33.66 70.34 -34.32 69.68 -35 69 C-34.31292969 68.93941406 -33.62585938 68.87882812 -32.91796875 68.81640625 C-32.01691406 68.73261719 -31.11585937 68.64882812 -30.1875 68.5625 C-29.29417969 68.48128906 -28.40085937 68.40007812 -27.48046875 68.31640625 C-24.87256441 68.06510233 -24.87256441 68.06510233 -22 67 C-21.34 67.33 -20.68 67.66 -20 68 C-20.66094879 64.85210973 -20.66094879 64.85210973 -23.1875 63.875 C-26.11672274 62.96368626 -28.96441618 62.42356983 -32 62 C-27.9499703 57.48826691 -23.52077501 54.75009046 -18.25 51.8125 C-16.71084763 50.94879383 -15.17424297 50.0805267 -13.640625 49.20703125 C-12.96547852 48.8303833 -12.29033203 48.45373535 -11.59472656 48.06567383 C-9.83310061 47.07885824 -9.83310061 47.07885824 -9 45 C-9.99 45 -10.98 45 -12 45 C-12 44.34 -12 43.68 -12 43 C-9.03 42.34 -6.06 41.68 -3 41 C-3 40.34 -3 39.68 -3 39 C-4.32 38.67 -5.64 38.34 -7 38 C-5.06745228 35.9754262 -3.36841312 34.57894208 -1 33 C-0.67 32.01 -0.34 31.02 0 30 C-0.99 29.67 -1.98 29.34 -3 29 C-2.360625 28.21625 -1.72125 27.4325 -1.0625 26.625 C0.98142313 24.20460719 0.98142313 24.20460719 2 22 C0.68 21.67 -0.64 21.34 -2 21 C-1.01 19.35 -0.02 17.7 1 16 C-0.98 16 -2.96 16 -5 16 C-2.525 12.535 -2.525 12.535 0 9 C-0.66 8.34 -1.32 7.68 -2 7 C-2.20496094 6.00226562 -2.20496094 6.00226562 -2.4140625 4.984375 C-2.60742188 4.32953125 -2.80078125 3.6746875 -3 3 C-9.90857274 -0.5822229 -17.08588149 -1.28478431 -24.64453125 0.69140625 C-32.9230508 3.7306784 -39.05172176 7.69458577 -43.5 15.4375 C-46.90965525 22.90893035 -47.94750381 31.65684851 -45.0859375 39.5078125 C-43.96136374 41.61871676 -43.96136374 41.61871676 -42 44 C-42.15726563 43.48695312 -42.31453125 42.97390625 -42.4765625 42.4453125 C-44.31238312 33.86901616 -44.05686273 24.77487742 -39.546875 17.1484375 C-34.78360811 10.53278904 -29.14060158 5.43768053 -21.03125 3.5390625 C-16.05378894 2.8082448 -11.01940584 2.89542904 -6 3 C-7.26953125 4.46484375 -8.5390625 5.9296875 -9.80859375 7.39453125 C-11.20871231 9.10712971 -11.20871231 9.10712971 -12 12 C-17.37142857 16 -17.37142857 16 -20 16 C-20 16.66 -20 17.32 -20 18 C-19.34 18.33 -18.68 18.66 -18 19 C-20.64 20.65 -23.28 22.3 -26 24 C-24.68 24.66 -23.36 25.32 -22 26 C-22.928125 26.70125 -23.85625 27.4025 -24.8125 28.125 C-27.90095295 30.67315622 -29.44426187 33.28351447 -31 37 C-29.02 36.505 -29.02 36.505 -27 36 C-27.495 36.78375 -27.99 37.5675 -28.5 38.375 C-30.16537965 40.78552327 -30.16537965 40.78552327 -30 43 C-29.34 43 -28.68 43 -28 43 C-28 43.66 -28 44.32 -28 45 C-28.66 45 -29.32 45 -30 45 C-30.33 46.98 -30.66 48.96 -31 51 C-29.515 51.495 -29.515 51.495 -28 52 C-31.96 56.455 -31.96 56.455 -36 61 C-36.99 60.67 -37.98 60.34 -39 60 C-39.625 58.07421875 -39.625 58.07421875 -40 55.6875 C-40.58700584 51.98814029 -41.57866343 49.87533718 -44 47 C-43.69147815 48.958964 -43.3780582 50.91715713 -43.0625 52.875 C-42.88847656 53.96554688 -42.71445312 55.05609375 -42.53515625 56.1796875 C-42.14448841 58.93821546 -42.14448841 58.93821546 -41 61 C-40.01 61.33 -39.02 61.66 -38 62 C-38 62.66 -38 63.32 -38 64 C-42.75 63.25 -42.75 63.25 -45 61 C-45.23828125 58.70703125 -45.23828125 58.70703125 -45.3125 55.8125 C-45.63476472 50.65006714 -46.79369117 46.20313863 -48.5625 41.375 C-51.8345072 32.20458661 -52.27874231 25.37530734 -48.26171875 16.3828125 C-43.43840713 7.27377198 -36.59222088 0.23152287 -26.80078125 -3.3046875 C-17.59956871 -5.58894947 -8.31096448 -4.55006809 0 0 Z " fill="#F1F1F1" transform="translate(93,24)"/>
<path d="M0 0 C-0.33 5.94 -0.66 11.88 -1 18 C1.64 18 4.28 18 7 18 C6.67 18.66 6.34 19.32 6 20 C2.9375 20.625 2.9375 20.625 0 21 C0.33 21.66 0.66 22.32 1 23 C1.23188406 30.30434783 1.23188406 30.30434783 0 34 C3.465 34.495 3.465 34.495 7 35 C6.67 35.99 6.34 36.98 6 38 C3.36 38 0.72 38 -2 38 C-2 42.29 -2 46.58 -2 51 C0.64 51 3.28 51 6 51 C6.33 51.66 6.66 52.32 7 53 C4.36 53.33 1.72 53.66 -1 54 C-1.33 58.62 -1.66 63.24 -2 68 C0.64 68.33 3.28 68.66 6 69 C6 69.66 6 70.32 6 71 C2.535 71.495 2.535 71.495 -1 72 C-0.34 72.99 0.32 73.98 1 75 C1.23046875 77.41015625 1.23046875 77.41015625 1.1875 80.0625 C1.18105469 80.94035156 1.17460937 81.81820312 1.16796875 82.72265625 C1 85 1 85 0 87 C1.98 87.33 3.96 87.66 6 88 C6 88.66 6 89.32 6 90 C3.36 90 0.72 90 -2 90 C-2 94.95 -2 99.9 -2 105 C0.64 105.33 3.28 105.66 6 106 C6 106.66 6 107.32 6 108 C3.03 108.495 3.03 108.495 0 109 C0.01160156 109.78246094 0.02320312 110.56492187 0.03515625 111.37109375 C0.04417969 112.38300781 0.05320312 113.39492187 0.0625 114.4375 C0.07410156 115.44683594 0.08570312 116.45617187 0.09765625 117.49609375 C0 120 0 120 -1 121 C2.465 121.495 2.465 121.495 6 122 C5.67 122.66 5.34 123.32 5 124 C2.69 124 0.38 124 -2 124 C-2 127.63 -2 131.26 -2 135 C6.44049037 134.8925771 14.88088843 134.77995984 23.32121849 134.66066074 C27.24015849 134.60543316 31.15910595 134.55201343 35.078125 134.50268555 C38.8582888 134.45503954 42.63836074 134.40269667 46.41841507 134.34705925 C47.86252183 134.32663676 49.30665377 134.30792349 50.7508049 134.29092598 C52.76931251 134.26687994 54.78773862 134.23626123 56.80615234 134.20532227 C57.95642914 134.18977798 59.10670593 134.1742337 60.2918396 134.15821838 C62.9676465 134.18046271 62.9676465 134.18046271 65 133 C67.04882302 132.89294305 69.10082557 132.84447023 71.15234375 132.82421875 C72.40466797 132.80037109 73.65699219 132.77652344 74.94726562 132.75195312 C77.57210923 132.70955477 80.19715427 132.67800034 82.82226562 132.65820312 C90.95098142 132.47995999 100.24763203 132.21306756 106.67163086 126.51806641 C108.18740991 124.7685204 108.18740991 124.7685204 110 122 C110.98290968 120.98319689 111.97334787 119.97261781 113 119 C111.94219458 124.42125277 109.32584374 126.95856789 105.36328125 130.484375 C100.25919627 133.75773859 94.69497177 134.26107369 88.75390625 134.4140625 C87.76994118 134.44311172 87.76994118 134.44311172 86.76609802 134.4727478 C84.69835872 134.53188909 82.63056171 134.57866229 80.5625 134.625 C79.14906606 134.66324033 77.73565391 134.70229545 76.32226562 134.7421875 C72.88171148 134.83753452 69.44099161 134.92180287 66 135 C69.92853871 135.0751855 73.85678833 135.12908016 77.78588867 135.16479492 C79.76561236 135.1869747 81.74513664 135.22512997 83.72460938 135.26367188 C91.64933576 135.32385967 98.49597769 134.60375582 106 132 C105.02596117 133.02530403 104.0173873 134.01769502 103 135 C102.33381653 135.6847641 101.66763306 136.3695282 100.98126221 137.07504272 C96.79551885 139.77771581 93.37294521 139.57640609 88.48730469 139.54931641 C87.5354277 139.55953827 86.58355072 139.56976013 85.60282898 139.58029175 C82.45892105 139.60806985 79.31589102 139.60617087 76.171875 139.6015625 C73.98097407 139.60933892 71.79007615 139.61800878 69.59918213 139.62753296 C65.00596346 139.64245558 60.41305222 139.64187767 55.81982422 139.63134766 C49.947429 139.61977643 44.07629914 139.65357437 38.20411301 139.700037 C33.67774149 139.72957771 29.15167209 139.73124596 24.62522125 139.72501755 C22.46116892 139.72604128 20.29709909 139.73646633 18.13314056 139.75664139 C15.09802975 139.78145929 12.06534856 139.76773914 9.03027344 139.74462891 C8.14476303 139.75991638 7.25925262 139.77520386 6.34690857 139.79095459 C-0.40242713 139.67798651 -4.94762739 137.47031047 -10 133 C-14.10289891 127.78052349 -16.11488423 123.17354693 -16.14044189 116.50395203 C-16.14615204 115.608255 -16.15186218 114.71255798 -16.15774536 113.78971863 C-16.15886322 112.81456802 -16.15998108 111.83941742 -16.16113281 110.8347168 C-16.16609772 109.80174469 -16.17106262 108.76877258 -16.17617798 107.70449829 C-16.19078701 104.28606501 -16.19759943 100.86767813 -16.203125 97.44921875 C-16.20887736 95.07273863 -16.21463508 92.69625853 -16.22039795 90.31977844 C-16.23090426 85.33566064 -16.2367494 80.35155896 -16.24023438 75.36743164 C-16.24571918 68.98515229 -16.2697487 62.60308628 -16.29820633 56.22087383 C-16.31684178 51.3111967 -16.3220388 46.40157086 -16.32357025 41.49186134 C-16.32659509 39.13916673 -16.33461791 36.78647298 -16.34775543 34.4338131 C-16.36483492 31.14019976 -16.36293081 27.84710661 -16.35644531 24.5534668 C-16.3656601 23.58438889 -16.37487488 22.61531097 -16.3843689 21.61686707 C-16.33379385 13.40596631 -14.99742863 8.99742863 -9 3 C-9 7.62 -9 12.24 -9 17 C-8.34 17 -7.68 17 -7 17 C-7 11.72 -7 6.44 -7 1 C-5 0 -5 0 0 0 Z " fill="#8E9093" transform="translate(24,8)"/>
<path d="M0 0 C0.33 0 0.66 0 1 0 C1.08813808 4.12486211 1.14077078 8.24947739 1.1875 12.375 C1.21263672 13.53128906 1.23777344 14.68757813 1.26367188 15.87890625 C1.34271802 25.20635185 0.66668231 34.50152459 -6.10424805 41.54345703 C-14.01493998 47.62139497 -23.67534439 47.51664803 -33.1875 47.25 C-34.42564453 47.23195312 -35.66378906 47.21390625 -36.93945312 47.1953125 C-39.96047365 47.14865581 -42.9798031 47.08320983 -46 47 C-45.61183105 46.49718506 -45.22366211 45.99437012 -44.82373047 45.47631836 C-41.6404888 41.30193769 -38.76876801 37.10683084 -36.125 32.5625 C-29.84773773 22.29816756 -23.34463342 16.06698771 -13 10 C-10.97295118 8.76010466 -8.9519103 7.51032477 -6.9375 6.25 C-6.03902344 5.69828125 -5.14054687 5.1465625 -4.21484375 4.578125 C-1.76202262 3.02842633 -1.76202262 3.02842633 0 0 Z " fill="#FBFBFB" transform="translate(137,94)"/>
<path d="M0 0 C1.75 1.2109375 1.75 1.2109375 3.3125 3.7734375 C3.75 6.2109375 3.75 6.2109375 3.75 9.2109375 C1.75 11.3984375 1.75 11.3984375 -0.25 13.2109375 C1.4 13.5409375 3.05 13.8709375 4.75 14.2109375 C4.75 14.5409375 4.75 14.8709375 4.75 15.2109375 C3.1 15.2109375 1.45 15.2109375 -0.25 15.2109375 C-0.25 15.8709375 -0.25 16.5309375 -0.25 17.2109375 C-2.04036458 18.1875 -3.83072917 19.1640625 -5.62109375 20.140625 C-7.41618315 21.12503774 -7.41618315 21.12503774 -8.25 23.2109375 C-5.94 23.2109375 -3.63 23.2109375 -1.25 23.2109375 C-4.75 26.7109375 -4.75 26.7109375 -8.25 30.2109375 C-5.94 30.2109375 -3.63 30.2109375 -1.25 30.2109375 C-4.13035092 32.45121044 -7.09866512 34.37265882 -10.25 36.2109375 C-9.26 36.8709375 -8.27 37.5309375 -7.25 38.2109375 C-13 42.2109375 -13 42.2109375 -15.25 42.2109375 C-15.25 42.8709375 -15.25 43.5309375 -15.25 44.2109375 C-13.93 44.5409375 -12.61 44.8709375 -11.25 45.2109375 C-13.725 45.7059375 -13.725 45.7059375 -16.25 46.2109375 C-16.25 47.2009375 -16.25 48.1909375 -16.25 49.2109375 C-17.88590895 50.26049916 -19.55985174 51.25115802 -21.25 52.2109375 C-23.88265553 54.49150536 -26.40666193 56.8656747 -28.9453125 59.25 C-31.25 61.2109375 -31.25 61.2109375 -34.25 62.2109375 C-34.25 61.5509375 -34.25 60.8909375 -34.25 60.2109375 C-34.889375 60.0871875 -35.52875 59.9634375 -36.1875 59.8359375 C-36.868125 59.6296875 -37.54875 59.4234375 -38.25 59.2109375 C-39.71569415 56.2795492 -39.87086218 53.32461484 -40.3125 50.0859375 C-40.48910156 48.80460937 -40.66570313 47.52328125 -40.84765625 46.203125 C-41.04681641 44.72199219 -41.04681641 44.72199219 -41.25 43.2109375 C-37.84145098 46.46455248 -36.06396228 49.27069483 -35.125 53.8984375 C-34.95742188 54.70667969 -34.78984375 55.51492187 -34.6171875 56.34765625 C-34.49601562 56.96253906 -34.37484375 57.57742187 -34.25 58.2109375 C-30.95303895 57.11195048 -30.20329411 56.26496363 -28.0625 53.6484375 C-27.53269531 53.00777344 -27.00289062 52.36710937 -26.45703125 51.70703125 C-26.05871094 51.21332031 -25.66039063 50.71960938 -25.25 50.2109375 C-25.91 49.8809375 -26.57 49.5509375 -27.25 49.2109375 C-26.92 47.2309375 -26.59 45.2509375 -26.25 43.2109375 C-25.59 43.2109375 -24.93 43.2109375 -24.25 43.2109375 C-24.25 42.5509375 -24.25 41.8909375 -24.25 41.2109375 C-25.735 41.7059375 -25.735 41.7059375 -27.25 42.2109375 C-26.67415568 39.82529673 -26.02772405 37.54410966 -25.25 35.2109375 C-25.91 35.2109375 -26.57 35.2109375 -27.25 35.2109375 C-26.67429187 31.32490765 -24.83424279 29.09920886 -22.25 26.2109375 C-21.26 25.5509375 -20.27 24.8909375 -19.25 24.2109375 C-20.57 23.5509375 -21.89 22.8909375 -23.25 22.2109375 C-20.61 20.5609375 -17.97 18.9109375 -15.25 17.2109375 C-15.58 16.2209375 -15.91 15.2309375 -16.25 14.2109375 C-15.68410156 13.89640625 -15.11820313 13.581875 -14.53515625 13.2578125 C-13.80167969 12.82984375 -13.06820312 12.401875 -12.3125 11.9609375 C-11.58160156 11.54328125 -10.85070312 11.125625 -10.09765625 10.6953125 C-7.85879803 8.89665262 -7.91572396 7.9157687 -7.25 5.2109375 C-5.1875 3.4609375 -5.1875 3.4609375 -3.25 2.2109375 C-13.79990954 2.35332892 -22.16895791 2.51220061 -30.23828125 10.07421875 C-37.59949432 17.92313124 -38.68840795 23.9686896 -38.48828125 34.5859375 C-38.21528764 38.7390206 -37.53807224 42.26621625 -36.25 46.2109375 C-41.90845438 40.82810983 -43.55239844 35.64042821 -43.875 27.9609375 C-43.62942245 19.46734152 -41.16383316 12.72689884 -35.57421875 6.27734375 C-25.8380442 -2.69784244 -12.14050045 -6.11360915 0 0 Z " fill="#111112" transform="translate(89.25,25.7890625)"/>
<path d="M0 0 C-0.33 5.94 -0.66 11.88 -1 18 C1.64 18 4.28 18 7 18 C6.67 18.66 6.34 19.32 6 20 C2.9375 20.625 2.9375 20.625 0 21 C0.33 21.66 0.66 22.32 1 23 C1.23188406 30.30434783 1.23188406 30.30434783 0 34 C3.465 34.495 3.465 34.495 7 35 C6.67 35.99 6.34 36.98 6 38 C3.36 38 0.72 38 -2 38 C-2 42.29 -2 46.58 -2 51 C0.64 51 3.28 51 6 51 C6.33 51.66 6.66 52.32 7 53 C4.36 53.33 1.72 53.66 -1 54 C-1.33 58.62 -1.66 63.24 -2 68 C0.64 68.33 3.28 68.66 6 69 C6 69.66 6 70.32 6 71 C2.535 71.495 2.535 71.495 -1 72 C-0.34 72.99 0.32 73.98 1 75 C1.23046875 77.41015625 1.23046875 77.41015625 1.1875 80.0625 C1.17783203 81.37927734 1.17783203 81.37927734 1.16796875 82.72265625 C1 85 1 85 0 87 C1.98 87.33 3.96 87.66 6 88 C6 88.66 6 89.32 6 90 C3.36 90 0.72 90 -2 90 C-2 94.95 -2 99.9 -2 105 C0.64 105.33 3.28 105.66 6 106 C6 106.66 6 107.32 6 108 C3.03 108.495 3.03 108.495 0 109 C0.01160156 109.78246094 0.02320313 110.56492187 0.03515625 111.37109375 C0.04417969 112.38300781 0.05320312 113.39492187 0.0625 114.4375 C0.07410156 115.44683594 0.08570313 116.45617187 0.09765625 117.49609375 C0 120 0 120 -1 121 C1.31 121.33 3.62 121.66 6 122 C6 122.33 6 122.66 6 123 C2.37 123 -1.26 123 -5 123 C-5 126.63 -5 130.26 -5 134 C-5.33 134 -5.66 134 -6 134 C-6 130.37 -6 126.74 -6 123 C-8.64 123 -11.28 123 -14 123 C-14 122.34 -14 121.68 -14 121 C-11.69 121 -9.38 121 -7 121 C-7 116.71 -7 112.42 -7 108 C-9.31 108 -11.62 108 -14 108 C-14 107.34 -14 106.68 -14 106 C-11.69 106 -9.38 106 -7 106 C-7 100.72 -7 95.44 -7 90 C-8.98 90 -10.96 90 -13 90 C-13 89.34 -13 88.68 -13 88 C-11.02 88 -9.04 88 -7 88 C-7 82.06 -7 76.12 -7 70 C-9.31 70 -11.62 70 -14 70 C-14 69.67 -14 69.34 -14 69 C-11.36 69 -8.72 69 -6 69 C-6 63.72 -6 58.44 -6 53 C-8.64 53 -11.28 53 -14 53 C-14 52.34 -14 51.68 -14 51 C-11.69 51 -9.38 51 -7 51 C-7 46.38 -7 41.76 -7 37 C-9.31 37 -11.62 37 -14 37 C-14 36.34 -14 35.68 -14 35 C-11.69 35.33 -9.38 35.66 -7 36 C-7 30.72 -7 25.44 -7 20 C-8.98 20 -10.96 20 -13 20 C-13 19.01 -13 18.02 -13 17 C-11.02 17 -9.04 17 -7 17 C-7 11.72 -7 6.44 -7 1 C-5 0 -5 0 0 0 Z " fill="#101012" transform="translate(24,8)"/>
<path d="M0 0 C4.6819364 3.29000936 7.06728418 6.54499411 8.56607056 12.09686279 C9.1850534 16.23807087 9.1729345 20.33060583 9.19287109 24.51269531 C9.20513733 25.94051079 9.20513733 25.94051079 9.21765137 27.39717102 C9.24242179 30.54081606 9.25899936 33.68441622 9.2734375 36.828125 C9.27876118 37.90452995 9.28408485 38.98093491 9.28956985 40.08995819 C9.3162642 45.78669013 9.33565162 51.48340043 9.35009766 57.18017578 C9.36343834 61.8864281 9.39129938 66.59224701 9.43212891 71.29833984 C9.48150715 76.99054886 9.50622484 82.68236471 9.51332474 88.37477875 C9.52002583 90.53884933 9.53521796 92.70291153 9.55921555 94.86685944 C9.59095235 97.90161032 9.59089088 100.93485224 9.58349609 103.96972656 C9.59990143 104.85523697 9.61630676 105.74074738 9.63320923 106.65309143 C9.56163221 113.86499591 7.28020476 119.56682905 2.25740623 124.82385635 C-1.44248722 128.19790796 -5.47826866 130.86710786 -10 133 C-12.375 132.875 -12.375 132.875 -14 132 C-14.33 131.34 -14.66 130.68 -15 130 C-14.34 129.67 -13.68 129.34 -13 129 C-13.51208008 129.16298584 -14.02416016 129.32597168 -14.55175781 129.49389648 C-17.79373094 130.164081 -20.86137063 130.11122389 -24.171875 130.09765625 C-25.1955014 130.09553383 -25.1955014 130.09553383 -26.23980713 130.09336853 C-28.40991684 130.08779084 -30.5799217 130.07524254 -32.75 130.0625 C-34.22525892 130.05748211 -35.70051947 130.05291971 -37.17578125 130.04882812 C-40.78388798 130.03782875 -44.39193375 130.02057953 -48 130 C-45.21302138 127.21302138 -43.4584714 127.73183455 -39.55859375 127.69140625 C-37.59889648 127.65370117 -37.59889648 127.65370117 -35.59960938 127.61523438 C-33.5285781 127.58670374 -31.45761545 127.56268437 -29.38647461 127.54370117 C-16.3964771 127.61074484 -16.3964771 127.61074484 -4.84375 122.38671875 C-1.85169324 118.6031586 -0.32336442 115.95825442 0 111 C0.16757813 110.24614014 0.33515625 109.49228027 0.5078125 108.71557617 C1.06479698 105.64249165 1.09566792 102.79840241 1.0625 99.67578125 C1.05089844 97.88624023 1.05089844 97.88624023 1.0390625 96.06054688 C1.02617187 94.82369141 1.01328125 93.58683594 1 92.3125 C0.97457722 89.85030353 0.9535148 87.38805689 0.9375 84.92578125 C0.92589844 83.83692627 0.91429687 82.74807129 0.90234375 81.6262207 C1 79 1 79 2 77 C2.10715259 74.88793914 2.14889019 72.77245664 2.16113281 70.65771484 C2.16609772 70.00703033 2.17106262 69.35634583 2.17617798 68.6859436 C2.19081159 66.52759752 2.19760589 64.3693251 2.203125 62.2109375 C2.20887841 60.70838418 2.21463612 59.20583088 2.22039795 57.70327759 C2.23091335 54.54746153 2.23675151 51.39167096 2.24023438 48.23583984 C2.24570003 44.20765189 2.26968395 40.17980523 2.29820633 36.15172386 C2.31691282 33.04431201 2.32204269 29.93698074 2.32357025 26.82951736 C2.32658265 25.3456703 2.33456308 23.86182417 2.34775543 22.37803268 C2.41091839 14.72321568 2.42510976 8.00508421 -1 1 C-0.67 0.67 -0.34 0.34 0 0 Z " fill="#999A9B" transform="translate(136,14)"/>
<path d="M0 0 C-1.26953125 1.46484375 -2.5390625 2.9296875 -3.80859375 4.39453125 C-5.20871231 6.10712971 -5.20871231 6.10712971 -6 9 C-11.37142857 13 -11.37142857 13 -14 13 C-14 13.66 -14 14.32 -14 15 C-13.34 15.33 -12.68 15.66 -12 16 C-14.64 17.65 -17.28 19.3 -20 21 C-18.68 21.66 -17.36 22.32 -16 23 C-16.928125 23.70125 -17.85625 24.4025 -18.8125 25.125 C-21.90095295 27.67315622 -23.44426187 30.28351447 -25 34 C-23.02 33.505 -23.02 33.505 -21 33 C-21.495 33.78375 -21.99 34.5675 -22.5 35.375 C-24.16537965 37.78552327 -24.16537965 37.78552327 -24 40 C-23.34 40 -22.68 40 -22 40 C-22 40.66 -22 41.32 -22 42 C-22.66 42 -23.32 42 -24 42 C-24.33 43.98 -24.66 45.96 -25 48 C-24.01 48.33 -23.02 48.66 -22 49 C-25.96 53.455 -25.96 53.455 -30 58 C-30.99 57.67 -31.98 57.34 -33 57 C-34.13077447 54.73845106 -34.10387968 53.50117171 -34.0625 51 C-34.05347656 50.29875 -34.04445312 49.5975 -34.03515625 48.875 C-34.02355469 48.25625 -34.01195312 47.6375 -34 47 C-33.85806765 44.71447204 -33.85806765 44.71447204 -35.5 41.8125 C-38.19351872 34.70316452 -38.286464 26.31108381 -36.12109375 19.0546875 C-32.50129024 11.24164627 -26.9129437 5.25769966 -19.03125 1.7109375 C-12.90906453 -0.43182742 -6.40669553 -0.13347282 0 0 Z " fill="#F7F7F7" transform="translate(87,27)"/>
<path d="M0 0 C0.33 0 0.66 0 1 0 C1 4.62 1 9.24 1 14 C-0.98 14.99 -0.98 14.99 -3 16 C-1.02 16.33 0.96 16.66 3 17 C3 22.28 3 27.56 3 33 C0.69 32.67 -1.62 32.34 -4 32 C-4 32.66 -4 33.32 -4 34 C-1.69 34 0.62 34 3 34 C3 38.62 3 43.24 3 48 C0.69 48 -1.62 48 -4 48 C-4 48.66 -4 49.32 -4 50 C-1.36 50 1.28 50 4 50 C4 55.28 4 60.56 4 66 C1.36 66 -1.28 66 -4 66 C-4.495 66.99 -4.495 66.99 -5 68 C-6.69152308 66.30847692 -6.14484646 64.17418355 -6.16113281 61.85693359 C-6.17074036 60.75844086 -6.1803479 59.65994812 -6.19024658 58.52816772 C-6.19449646 57.33035675 -6.19874634 56.13254578 -6.203125 54.8984375 C-6.20882507 53.67347565 -6.21452515 52.44851379 -6.22039795 51.18643188 C-6.22986836 48.58539702 -6.23638999 45.98435005 -6.24023438 43.38330078 C-6.2467662 39.4129217 -6.28089989 35.4429139 -6.3125 31.47265625 C-6.31903293 28.94791975 -6.32428226 26.42317953 -6.328125 23.8984375 C-6.3404718 22.71277191 -6.3528186 21.52710632 -6.36553955 20.30551147 C-6.34387506 12.23912446 -5.51322532 6.26502878 0 0 Z " fill="#8B8E91" transform="translate(14,11)"/>
<path d="M0 0 C0.495 0.99 0.495 0.99 1 2 C-2.36777688 7.56978484 -5.85590536 11.92036278 -12.24633789 14.11474609 C-16.01535087 15.00362031 -19.38026647 15.3145133 -23.24609375 15.4140625 C-23.90207047 15.43342865 -24.55804718 15.4527948 -25.23390198 15.4727478 C-27.30164128 15.53188909 -29.36943829 15.57866229 -31.4375 15.625 C-32.85093394 15.66324033 -34.26434609 15.70229545 -35.67773438 15.7421875 C-39.11828852 15.83753452 -42.55900839 15.92180287 -46 16 C-42.07146129 16.0751855 -38.14321167 16.12908016 -34.21411133 16.16479492 C-32.23438764 16.1869747 -30.25486336 16.22512997 -28.27539062 16.26367188 C-20.35066424 16.32385967 -13.50402231 15.60375582 -6 13 C-6.97403883 14.02530403 -7.9826127 15.01769502 -9 16 C-9.9973114 17.028619 -9.9973114 17.028619 -11.01477051 18.07801819 C-15.22304493 20.78743363 -18.66973819 20.55442117 -23.57617188 20.50170898 C-25.01362511 20.50981346 -25.01362511 20.50981346 -26.4801178 20.51808167 C-29.64331074 20.53057434 -32.80559449 20.51407388 -35.96875 20.49609375 C-38.16923063 20.49624872 -40.36971153 20.49773745 -42.57019043 20.50050354 C-47.18021726 20.50188778 -51.78993308 20.48932495 -56.39990234 20.46655273 C-62.30823193 20.43816834 -68.21604471 20.44090524 -74.12441254 20.45364285 C-78.66774914 20.46059879 -83.21096636 20.45281164 -87.75428772 20.44038582 C-89.93278038 20.43587052 -92.11128585 20.4355352 -94.28977966 20.43945122 C-97.3347296 20.44236254 -100.37896809 20.42585967 -103.42382812 20.40405273 C-104.32371964 20.40855438 -105.22361115 20.41305603 -106.15077209 20.41769409 C-106.98342087 20.40778946 -107.81606964 20.39788483 -108.6739502 20.38768005 C-109.39290718 20.38525016 -110.11186417 20.38282026 -110.85260773 20.38031673 C-113 20 -113 20 -118 17 C-117.67 12.71 -117.34 8.42 -117 4 C-113.7 4 -110.4 4 -107 4 C-107 4.33 -107 4.66 -107 5 C-109.31 5 -111.62 5 -114 5 C-114 8.63 -114 12.26 -114 16 C-105.55950963 15.8925771 -97.11911157 15.77995984 -88.67878151 15.66066074 C-84.75984151 15.60543316 -80.84089405 15.55201343 -76.921875 15.50268555 C-73.1417112 15.45503954 -69.36163926 15.40269667 -65.58158493 15.34705925 C-64.13747817 15.32663676 -62.69334623 15.30792349 -61.2491951 15.29092598 C-59.23068749 15.26687994 -57.21226138 15.23626123 -55.19384766 15.20532227 C-53.46843246 15.18200584 -53.46843246 15.18200584 -51.7081604 15.15821838 C-49.0323535 15.18046271 -49.0323535 15.18046271 -47 14 C-44.95117698 13.89294305 -42.89917443 13.84447023 -40.84765625 13.82421875 C-38.96916992 13.78844727 -38.96916992 13.78844727 -37.05273438 13.75195312 C-34.42789077 13.70955477 -31.80284573 13.67800034 -29.17773438 13.65820312 C-20.99120608 13.47869231 -11.80332208 13.16993207 -5.29296875 7.51806641 C-3.74677922 5.78199453 -3.74677922 5.78199453 -2 3 C-1.34 2.01 -0.68 1.02 0 0 Z " fill="#646669" transform="translate(136,127)"/>
<path d="M0 0 C-0.33 5.94 -0.66 11.88 -1 18 C1.64 18 4.28 18 7 18 C6.67 18.66 6.34 19.32 6 20 C2.9375 20.625 2.9375 20.625 0 21 C0.33 21.66 0.66 22.32 1 23 C1.23188406 30.30434783 1.23188406 30.30434783 0 34 C3.465 34.495 3.465 34.495 7 35 C6.67 35.99 6.34 36.98 6 38 C3.36 38 0.72 38 -2 38 C-2 42.29 -2 46.58 -2 51 C0.31 51 2.62 51 5 51 C5 51.33 5 51.66 5 52 C0.38 52 -4.24 52 -9 52 C-8.01 51.505 -8.01 51.505 -7 51 C-7 46.38 -7 41.76 -7 37 C-9.31 37 -11.62 37 -14 37 C-14 36.34 -14 35.68 -14 35 C-11.69 35.33 -9.38 35.66 -7 36 C-7 30.72 -7 25.44 -7 20 C-8.98 20 -10.96 20 -13 20 C-13 19.01 -13 18.02 -13 17 C-11.02 17 -9.04 17 -7 17 C-7 11.72 -7 6.44 -7 1 C-5 0 -5 0 0 0 Z " fill="#2A2A2D" transform="translate(24,8)"/>
<path d="M0 0 C0.33 0.66 0.66 1.32 1 2 C0.67 2.66 0.34 3.32 0 4 C0.66 4 1.32 4 2 4 C0.66666667 6.66666667 -0.66666667 9.33333333 -2 12 C-1.01 12.66 -0.02 13.32 1 14 C0.030625 14.61875 -0.93875 15.2375 -1.9375 15.875 C-5.02835362 17.65678846 -5.02835362 17.65678846 -6 20 C-3.69 20 -1.38 20 1 20 C-1.33333333 22.33333333 -3.66666667 24.66666667 -6 27 C-3.69 27 -1.38 27 1 27 C-1.88035092 29.24027294 -4.84866512 31.16172132 -8 33 C-7.01 33.66 -6.02 34.32 -5 35 C-10.75 39 -10.75 39 -13 39 C-13 39.66 -13 40.32 -13 41 C-11.68 41.33 -10.36 41.66 -9 42 C-11.475 42.495 -11.475 42.495 -14 43 C-14 43.99 -14 44.98 -14 46 C-16.375 47.75 -16.375 47.75 -19 49 C-19.66 48.67 -20.32 48.34 -21 48 C-20.34 46.35 -19.68 44.7 -19 43 C-19.99 43 -20.98 43 -22 43 C-22 42.34 -22 41.68 -22 41 C-20 39.375 -20 39.375 -18 38 C-19.32 37.34 -20.64 36.68 -22 36 C-19.69 34.02 -17.38 32.04 -15 30 C-16.65 29.67 -18.3 29.34 -20 29 C-20 28.34 -20 27.68 -20 27 C-18.28515625 25.5625 -18.28515625 25.5625 -16.0625 24 C-13.01367363 21.95183196 -13.01367363 21.95183196 -11 19 C-11.66 19 -12.32 19 -13 19 C-12 16 -12 16 -9 14 C-8.01770086 12.33009146 -7.04039799 10.65641256 -6.1171875 8.953125 C-4.31114628 5.79571027 -2.15232302 2.92955078 0 0 Z " fill="#EEEEEF" transform="translate(87,29)"/>
<path d="M0 0 C0 0.66 0 1.32 0 2 C-1.79244141 2.12955078 -1.79244141 2.12955078 -3.62109375 2.26171875 C-14.81871966 3.19612915 -22.89226146 4.38202456 -30.875 12.875 C-37.58309894 21.29514275 -37.69874145 28.36996619 -37 39 C-36.53218941 41.81486028 -35.88747693 44.28210189 -35 47 C-40.65845438 41.61717233 -42.30239844 36.42949071 -42.625 28.75 C-42.37942245 20.25640402 -39.91383316 13.51596134 -34.32421875 7.06640625 C-25.08843738 -1.44749795 -11.85949828 -5.12843169 0 0 Z " fill="#0E0F0F" transform="translate(88,25)"/>
<path d="M0 0 C0.33 0 0.66 0 1 0 C1 8.58 1 17.16 1 26 C0.67 26 0.34 26 0 26 C-0.495 21.05 -0.495 21.05 -1 16 C-1.33 16.33 -1.66 16.66 -2 17 C-3.41327947 17.15620555 -4.8335459 17.25056173 -6.25390625 17.31640625 C-7.10791016 17.35830078 -7.96191406 17.40019531 -8.84179688 17.44335938 C-10.18854492 17.50233398 -10.18854492 17.50233398 -11.5625 17.5625 C-12.46419922 17.60568359 -13.36589844 17.64886719 -14.29492188 17.69335938 C-16.52978485 17.79978142 -18.76476308 17.90179988 -21 18 C-21 17.01 -21 16.02 -21 15 C-19.12890625 13.60546875 -19.12890625 13.60546875 -16.5625 12.1875 C-12.98242473 10.14028768 -9.45274672 8.06941737 -6 5.8125 C-4.9171875 5.11060547 -4.9171875 5.11060547 -3.8125 4.39453125 C-1.73515363 2.95069465 -1.73515363 2.95069465 0 0 Z M-24 17 C-23.34 17.33 -22.68 17.66 -22 18 C-23.485 19.485 -23.485 19.485 -25 21 C-17.08 21.33 -9.16 21.66 -1 22 C-1 22.33 -1 22.66 -1 23 C-2.65 23 -4.3 23 -6 23 C-6 23.66 -6 24.32 -6 25 C-14 25 -22 25 -30 25 C-28.55746343 21.63408134 -26.66735273 19.48952921 -24 17 Z " fill="#F2F2F2" transform="translate(137,94)"/>
<path d="M0 0 C0.66 0 1.32 0 2 0 C2 5.61 2 11.22 2 17 C0.02 17 -1.96 17 -4 17 C-4 17.66 -4 18.32 -4 19 C-2.02 19 -0.04 19 2 19 C2 24.28 2 29.56 2 35 C-0.31 35 -2.62 35 -5 35 C-5.33 35.66 -5.66 36.32 -6 37 C-6 25.12 -6 13.24 -6 1 C-5.34 1 -4.68 1 -4 1 C-4 4.63 -4 8.26 -4 12 C-2.68 12 -1.36 12 0 12 C0 8.04 0 4.08 0 0 Z " fill="#9A9C9F" transform="translate(15,79)"/>
<path d="M0 0 C0.95783386 0.16331314 1.91566772 0.32662628 2.90252686 0.49488831 C7.46112881 1.14166758 11.96309785 1.11747326 16.55957031 1.08178711 C17.95838943 1.07718727 17.95838943 1.07718727 19.38546753 1.07249451 C21.39939495 1.06536959 23.41331542 1.05599559 25.42722321 1.04459953 C28.61268068 1.02715451 31.79808766 1.01689376 34.98358154 1.00868225 C44.0366289 0.98426802 53.0896076 0.94851344 62.14257812 0.90405273 C67.68786931 0.87731856 73.23312176 0.86024655 78.77846527 0.84918404 C80.89164418 0.84296677 83.00481539 0.83295221 85.11795807 0.81910515 C88.06469195 0.79995544 91.01122024 0.79300273 93.95800781 0.78881836 C94.83389557 0.78005676 95.70978333 0.77129517 96.61221313 0.76226807 C102.65815376 0.77210251 102.65815376 0.77210251 106 3 C102.54855323 4.72572339 98.56378492 4.15646906 94.7644043 4.16113281 C93.80654022 4.16609772 92.84867615 4.17106262 91.86178589 4.17617798 C88.68258962 4.19082214 85.50344325 4.19760557 82.32421875 4.203125 C80.11945087 4.20887487 77.914683 4.21463262 75.70991516 4.22039795 C71.08207974 4.23091454 66.45426172 4.23675281 61.82641602 4.24023438 C55.89451813 4.2457186 49.96284985 4.26974247 44.03102398 4.29820633 C39.47485176 4.3168249 34.9187349 4.32203791 30.36252785 4.32357025 C28.17564451 4.32659938 25.98876221 4.33463662 23.80191612 4.34775543 C20.74235933 4.36479835 17.68336422 4.36293975 14.6237793 4.35644531 C13.71917465 4.3656601 12.81457001 4.37487488 11.8825531 4.3843689 C7.1122281 4.35262795 3.86685561 4.13709426 0 1 C0 0.67 0 0.34 0 0 Z " fill="#646668" transform="translate(18,143)"/>
<path d="M0 0 C2 1 2 1 2.61592102 2.74293518 C3.04062033 5.23870797 3.13445982 7.58072618 3.14526367 10.11303711 C3.15483345 11.64129372 3.15483345 11.64129372 3.16459656 13.20042419 C3.16570938 14.29830765 3.1668222 15.3961911 3.16796875 16.52734375 C3.17129715 17.66724258 3.17462555 18.80714142 3.17805481 19.98158264 C3.18311936 22.39828081 3.18546328 24.81498598 3.18530273 27.23168945 C3.18747315 30.89221096 3.20558947 34.55242308 3.22460938 38.21289062 C3.22754677 40.56770731 3.22952925 42.92252542 3.23046875 45.27734375 C3.23765427 46.35700912 3.24483978 47.4366745 3.25224304 48.54905701 C3.22980004 56.18808771 2.34669282 63.48410362 1 71 C0.67 71 0.34 71 0 71 C0 47.57 0 24.14 0 0 Z " fill="#8A8B8C" transform="translate(140,21)"/>
<path d="M0 0 C0.99 0.33 1.98 0.66 3 1 C3.11798604 4.77056169 3.18783864 8.54063765 3.25 12.3125 C3.30027344 13.8912793 3.30027344 13.8912793 3.3515625 15.50195312 C3.46229378 24.49886952 1.47395909 31.61071774 -2.9375 39.4375 C-11.95304989 46.98112338 -24.17121507 46.52628406 -35.3125 46.25 C-36.74671938 46.22987061 -38.18096658 46.2116314 -39.61523438 46.1953125 C-43.07741564 46.15190341 -46.53851978 46.08324714 -50 46 C-47.21302138 43.21302138 -45.4584714 43.73183455 -41.55859375 43.69140625 C-39.59889648 43.65370117 -39.59889648 43.65370117 -37.59960938 43.61523438 C-35.5285781 43.58670374 -33.45761545 43.56268437 -31.38647461 43.54370117 C-18.3964771 43.61074484 -18.3964771 43.61074484 -6.84375 38.38671875 C-3.85169324 34.6031586 -2.32336442 31.95825442 -2 27 C-1.83765869 26.22503174 -1.67531738 25.45006348 -1.50805664 24.65161133 C-0.99378777 21.96757761 -0.79530227 19.42809821 -0.68359375 16.69921875 C-0.62075195 15.23452148 -0.62075195 15.23452148 -0.55664062 13.74023438 C-0.51732422 12.73283203 -0.47800781 11.72542969 -0.4375 10.6875 C-0.37272461 9.14739258 -0.37272461 9.14739258 -0.30664062 7.57617188 C-0.20093175 5.05090431 -0.09883532 2.52554438 0 0 Z " fill="#8F9193" transform="translate(138,98)"/>
<path d="M0 0 C0.33 0 0.66 0 1 0 C1.1160305 12.75246236 1.20478512 25.50479841 1.25906086 38.25768185 C1.28511522 44.17987194 1.32043804 50.10169992 1.37719727 56.02368164 C1.43166425 61.74251917 1.46145183 67.46100917 1.47438622 73.18008614 C1.48359965 75.35812409 1.50159145 77.53614378 1.52865028 79.71403313 C1.56513504 82.77322848 1.56993713 85.83100172 1.56762695 88.89038086 C1.58560333 89.78374649 1.60357971 90.67711212 1.62210083 91.59754944 C1.56321458 98.84016937 -0.69659547 104.54325792 -5.74265575 109.82354641 C-9.44214126 113.19805656 -13.4782968 115.86712113 -18 118 C-20.375 117.875 -20.375 117.875 -22 117 C-22.33 116.34 -22.66 115.68 -23 115 C-21.205625 114.4121875 -21.205625 114.4121875 -19.375 113.8125 C-15.07992918 112.21892249 -12.41021727 110.02269258 -9 107 C-8.3289838 106.70244025 -7.65796761 106.4048805 -6.96661758 106.09830379 C-3.22271011 104.0074307 -2.21648463 99.93049652 -1 96 C-0.48387567 92.70738702 -0.43475139 89.49434974 -0.45410156 86.16577148 C-0.44376389 85.22811447 -0.43342621 84.29045746 -0.42277527 83.3243866 C-0.39351683 80.25644348 -0.39185168 77.18916496 -0.390625 74.12109375 C-0.37563192 71.98160049 -0.35890241 69.84211876 -0.34051514 67.70265198 C-0.29695632 62.09511766 -0.27686788 56.48773947 -0.26177979 50.88006592 C-0.24216738 45.14846612 -0.200202 39.41703389 -0.16015625 33.68554688 C-0.0849783 22.45708308 -0.03461164 11.22865703 0 0 Z " fill="#C3C2C3" transform="translate(144,29)"/>
<path d="M0 0 C6.6 0 13.2 0 20 0 C20 0.66 20 1.32 20 2 C18.02 2.33 16.04 2.66 14 3 C14.01160156 3.78246094 14.02320313 4.56492187 14.03515625 5.37109375 C14.04417969 6.38300781 14.05320312 7.39492187 14.0625 8.4375 C14.07410156 9.44683594 14.08570313 10.45617187 14.09765625 11.49609375 C14 14 14 14 13 15 C15.31 15.33 17.62 15.66 20 16 C20 16.33 20 16.66 20 17 C16.37 17 12.74 17 9 17 C9 20.63 9 24.26 9 28 C8.67 28 8.34 28 8 28 C8 24.37 8 20.74 8 17 C5.36 17 2.72 17 0 17 C0 16.34 0 15.68 0 15 C2.31 15 4.62 15 7 15 C7 10.71 7 6.42 7 2 C4.69 2 2.38 2 0 2 C0 1.34 0 0.68 0 0 Z " fill="#0C0D0F" transform="translate(10,114)"/>
<path d="M0 0 C0.66 0 1.32 0 2 0 C2 5.28 2 10.56 2 16 C-0.31 15.67 -2.62 15.34 -5 15 C-5 15.66 -5 16.32 -5 17 C-2.69 17 -0.38 17 2 17 C2 21.62 2 26.24 2 31 C-0.31 31 -2.62 31 -5 31 C-4.67 31.99 -4.34 32.98 -4 34 C-4.99 34.495 -4.99 34.495 -6 35 C-6 27.08 -6 19.16 -6 11 C-5.67 11.99 -5.34 12.98 -5 14 C-3.35 14 -1.7 14 0 14 C0 9.38 0 4.76 0 0 Z " fill="#9C9EA1" transform="translate(15,28)"/>
<path d="M0 0 C0.33 0 0.66 0 1 0 C1 4.62 1 9.24 1 14 C-0.98 14.99 -0.98 14.99 -3 16 C-1.68 16.33 -0.36 16.66 1 17 C1 21.62 1 26.24 1 31 C-0.65 31 -2.3 31 -4 31 C-5.46208619 26.61374142 -5.30602556 22.34620582 -5.375 17.75 C-5.41238281 16.82058594 -5.44976562 15.89117187 -5.48828125 14.93359375 C-5.57282261 8.29240052 -4.46089936 4.9687556 0 0 Z " fill="#6D7276" transform="translate(14,11)"/>
<path d="M0 0 C0.66 0 1.32 0 2 0 C2 4.29 2 8.58 2 13 C-0.31 13 -2.62 13 -5 13 C-5 13.66 -5 14.32 -5 15 C-2.36 15 0.28 15 3 15 C3 18.96 3 22.92 3 27 C-2.01066566 24.49466717 -4.14218502 22.29738407 -6 17 C-6.60038786 11.68609944 -6.29087925 6.32632222 -6 1 C-5.01 1.495 -5.01 1.495 -4 2 C-3.40644386 4.64860427 -3.25790731 7.29197322 -3 10 C-0.70424397 7.70424397 -0.67660401 6.99157475 -0.375 3.875 C-0.189375 1.956875 -0.189375 1.956875 0 0 Z " fill="#93979B" transform="translate(15,116)"/>
<path d="M0 0 C10.89 0 21.78 0 33 0 C32.34 1.32 31.68 2.64 31 4 C26.7641643 4.02469321 22.52836658 4.04285671 18.29248047 4.05493164 C16.8510668 4.05996474 15.40965824 4.06679173 13.96826172 4.07543945 C11.89809915 4.08754983 9.82800399 4.09323847 7.7578125 4.09765625 C6.5114502 4.10289307 5.26508789 4.10812988 3.98095703 4.11352539 C1 4 1 4 -1 3 C-0.67 2.01 -0.34 1.02 0 0 Z " fill="#E9E9E9" transform="translate(103,123)"/>
<path d="M0 0 C-0.33 5.94 -0.66 11.88 -1 18 C-3.64 18 -6.28 18 -9 18 C-8.34 17.67 -7.68 17.34 -7 17 C-7 11.72 -7 6.44 -7 1 C-5 0 -5 0 0 0 Z " fill="#60646A" transform="translate(24,8)"/>
<path d="M0 0 C6.27 0 12.54 0 19 0 C19 0.33 19 0.66 19 1 C13.06 1.33 7.12 1.66 1 2 C0.67 1.34 0.34 0.68 0 0 Z M-2 1 C-1.34 1.33 -0.68 1.66 0 2 C-1.485 3.485 -1.485 3.485 -3 5 C4.92 5.33 12.84 5.66 21 6 C21 6.33 21 6.66 21 7 C19.35 7 17.7 7 16 7 C16 7.66 16 8.32 16 9 C8 9 0 9 -8 9 C-6.55746343 5.63408134 -4.66735273 3.48952921 -2 1 Z " fill="#E3E4E4" transform="translate(115,110)"/>
<path d="M0 0 C4.8 3.44615385 4.8 3.44615385 5.8125 6.25 C5.874375 6.8275 5.93625 7.405 6 8 C5.67 8 5.34 8 5 8 C4.99191315 8.88505219 4.98382629 9.77010437 4.97549438 10.68197632 C4.8976485 19.01081811 4.81038849 27.33949606 4.71247292 35.66812706 C4.66246419 39.95026771 4.61613478 44.23238314 4.578125 48.51464844 C4.5413297 52.64500217 4.4949859 56.77514718 4.44193649 60.90532303 C4.42336181 62.483388 4.40826528 64.06149777 4.39665604 65.63962936 C4.37984573 67.84509543 4.35082465 70.05008023 4.31884766 72.25537109 C4.30552399 73.51223724 4.29220032 74.76910339 4.2784729 76.0640564 C4 79 4 79 2 81 C1.67 80.34 1.34 79.68 1 79 C1.495 78.01 1.495 78.01 2 77 C2.10715259 74.88793914 2.14889019 72.77245664 2.16113281 70.65771484 C2.16609772 70.00703033 2.17106262 69.35634583 2.17617798 68.6859436 C2.19081159 66.52759752 2.19760589 64.3693251 2.203125 62.2109375 C2.20887841 60.70838418 2.21463612 59.20583088 2.22039795 57.70327759 C2.23091335 54.54746153 2.23675151 51.39167096 2.24023438 48.23583984 C2.24570003 44.20765189 2.26968395 40.17980523 2.29820633 36.15172386 C2.31691282 33.04431201 2.32204269 29.93698074 2.32357025 26.82951736 C2.32658265 25.3456703 2.33456308 23.86182417 2.34775543 22.37803268 C2.41091839 14.72321568 2.42510976 8.00508421 -1 1 C-0.67 0.67 -0.34 0.34 0 0 Z " fill="#BBBCBB" transform="translate(136,14)"/>
<path d="M0 0 C4 1 4 1 6 4 C6.23046875 6.41015625 6.23046875 6.41015625 6.1875 9.0625 C6.18105469 9.94035156 6.17460937 10.81820312 6.16796875 11.72265625 C6 14 6 14 5 16 C6.65 16.33 8.3 16.66 10 17 C10 17.33 10 17.66 10 18 C6.7 18 3.4 18 0 18 C0 12.06 0 6.12 0 0 Z " fill="#1E1F21" transform="translate(19,79)"/>
<path d="M0 0 C11.22 0 22.44 0 34 0 C31 3 31 3 27.8137207 3.34057617 C26.53070068 3.32486572 25.24768066 3.30915527 23.92578125 3.29296875 C23.2419487 3.28872391 22.55811615 3.28447906 21.8535614 3.28010559 C19.67280439 3.26333353 17.49297691 3.22568657 15.3125 3.1875 C13.83269565 3.17245114 12.3528768 3.15876308 10.87304688 3.14648438 C7.24839664 3.11343569 3.62428906 3.06166446 0 3 C0 2.01 0 1.02 0 0 Z " fill="#E8E8E8" transform="translate(99,130)"/>
<path d="M0 0 C6.6 0.33 13.2 0.66 20 1 C19.67 1.66 19.34 2.32 19 3 C16.69 3 14.38 3 12 3 C12 3.66 12 4.32 12 5 C11.34 5 10.68 5 10 5 C10.165 5.515625 10.33 6.03125 10.5 6.5625 C11.15049 9.73363876 11.0620734 12.77218334 11 16 C9.02 16.99 9.02 16.99 7 18 C7 12.72 7 7.44 7 2 C4.69 2.33 2.38 2.66 0 3 C0 2.01 0 1.02 0 0 Z " fill="#1C1C1D" transform="translate(11,25)"/>
<path d="M0 0 C4.29 0 8.58 0 13 0 C13 0.33 13 0.66 13 1 C10.36 1 7.72 1 5 1 C5 5.29 5 9.58 5 14 C7.31 14 9.62 14 12 14 C12 14.33 12 14.66 12 15 C7.38 15 2.76 15 -2 15 C-1.34 14.67 -0.68 14.34 0 14 C0 9.38 0 4.76 0 0 Z " fill="#383C42" transform="translate(17,45)"/>
<path d="M0 0 C3.3 0 6.6 0 10 0 C10 0.33 10 0.66 10 1 C7.69 1 5.38 1 3 1 C3 4.63 3 8.26 3 12 C4.36253906 11.98839844 5.72507812 11.97679687 7.12890625 11.96484375 C8.94010279 11.95545931 10.75130082 11.94635981 12.5625 11.9375 C13.90538086 11.92493164 13.90538086 11.92493164 15.27539062 11.91210938 C20.29997943 11.89370429 25.04817291 12.13733602 30 13 C30 13.33 30 13.66 30 14 C26.14589793 14.05847045 22.29191135 14.09375405 18.4375 14.125 C16.80844727 14.15013672 16.80844727 14.15013672 15.14648438 14.17578125 C9.35520558 14.21098659 4.45865358 13.98923674 -1 12 C-0.67 8.04 -0.34 4.08 0 0 Z " fill="#4E5257" transform="translate(19,131)"/>
<path d="M0 0 C3.40854902 3.25361498 5.18603772 6.05975733 6.125 10.6875 C6.29257812 11.49574219 6.46015625 12.30398437 6.6328125 13.13671875 C6.75398438 13.75160156 6.87515625 14.36648437 7 15 C10.48237464 13.83920845 11.01581316 12.93131619 13.0625 10 C15.79917469 6.10041265 15.79917469 6.10041265 18 5 C18.33 6.65 18.66 8.3 19 10 C17.75482035 11.13033298 16.50363348 12.25405036 15.25 13.375 C14.55390625 14.00148438 13.8578125 14.62796875 13.140625 15.2734375 C11.15491312 16.87505183 9.32045907 17.96520068 7 19 C7 18.34 7 17.68 7 17 C6.360625 16.87625 5.72125 16.7525 5.0625 16.625 C4.0415625 16.315625 4.0415625 16.315625 3 16 C1.53430585 13.0686117 1.37913782 10.11367734 0.9375 6.875 C0.76089844 5.59367187 0.58429687 4.31234375 0.40234375 2.9921875 C0.26957031 2.00476563 0.13679688 1.01734375 0 0 Z " fill="#1D1D1D" transform="translate(48,69)"/>
<path d="M0 0 C1.65 0 3.3 0 5 0 C4.98839844 1.05960937 4.97679687 2.11921875 4.96484375 3.2109375 C4.95546524 4.59895658 4.94636511 5.98697755 4.9375 7.375 C4.92912109 8.07367188 4.92074219 8.77234375 4.91210938 9.4921875 C4.8164558 13.37295376 4.8164558 13.37295376 6 17 C3.36 17 0.72 17 -2 17 C-1.34 16.67 -0.68 16.34 0 16 C0 10.72 0 5.44 0 0 Z " fill="#393D46" transform="translate(17,98)"/>
<path d="M0 0 C0.66 0 1.32 0 2 0 C2 5.28 2 10.56 2 16 C-0.31 15.67 -2.62 15.34 -5 15 C-5 16.32 -5 17.64 -5 19 C-4.34 19 -3.68 19 -3 19 C-3 22.3 -3 25.6 -3 29 C-3.99 29.33 -4.98 29.66 -6 30 C-6 23.73 -6 17.46 -6 11 C-5.67 11.99 -5.34 12.98 -5 14 C-3.35 14 -1.7 14 0 14 C0 9.38 0 4.76 0 0 Z " fill="#A4A6A9" transform="translate(15,28)"/>
<path d="M0 0 C0.33 0 0.66 0 1 0 C0.33686285 6.7639989 -1.22094698 10.55213854 -6.25 15.0625 C-14.88738472 22.11119028 -14.88738472 22.11119028 -19.375 21.875 C-21 21 -21 21 -22 19 C-20.80375 18.608125 -19.6075 18.21625 -18.375 17.8125 C-14.07992918 16.21892249 -11.41021727 14.02269258 -8 11 C-7.3296875 10.71511719 -6.659375 10.43023437 -5.96875 10.13671875 C-3.3578375 8.6292276 -2.85673329 7.14183321 -1.75 4.375 C-1.24726563 3.14910156 -1.24726563 3.14910156 -0.734375 1.8984375 C-0.49203125 1.27195312 -0.2496875 0.64546875 0 0 Z " fill="#B4B5B4" transform="translate(143,125)"/>
<path d="M0 0 C3 1 3 1 4.1875 3.375 C5 6 5 6 5 9 C3 11.1875 3 11.1875 1 13 C2.65 13.33 4.3 13.66 6 14 C6 14.33 6 14.66 6 15 C4.35 15 2.7 15 1 15 C0.67 15.66 0.34 16.32 0 17 C-1.32 16.34 -2.64 15.68 -4 15 C-2.38731308 12.28775382 -0.75098126 9.62647188 1 7 C0.34 7 -0.32 7 -1 7 C-1.625 4.625 -1.625 4.625 -2 2 C-1.34 1.34 -0.68 0.68 0 0 Z " fill="#232323" transform="translate(88,26)"/>
<path d="M0 0 C0.66 0 1.32 0 2 0 C2 4.29 2 8.58 2 13 C-0.31 13 -2.62 13 -5 13 C-5.33 13.66 -5.66 14.32 -6 15 C-6 10.38 -6 5.76 -6 1 C-5.01 1.495 -5.01 1.495 -4 2 C-3.40644386 4.64860427 -3.25790731 7.29197322 -3 10 C-0.70424397 7.70424397 -0.67660401 6.99157475 -0.375 3.875 C-0.189375 1.956875 -0.189375 1.956875 0 0 Z " fill="#A5A7AA" transform="translate(15,116)"/>
<path d="M0 0 C1.134375 0.020625 2.26875 0.04125 3.4375 0.0625 C2.4475 0.5575 2.4475 0.5575 1.4375 1.0625 C1.4375 5.0225 1.4375 8.9825 1.4375 13.0625 C0.1175 13.0625 -1.2025 13.0625 -2.5625 13.0625 C-2.5625 9.4325 -2.5625 5.8025 -2.5625 2.0625 C-3.2225 1.7325 -3.8825 1.4025 -4.5625 1.0625 C-3.5625 0.0625 -3.5625 0.0625 0 0 Z " fill="#494C4F" transform="translate(13.5625,77.9375)"/>
<path d="M0 0 C-3.04652371 0.89558984 -5.69131428 1.09678466 -8.86035156 1.02172852 C-9.82104553 1.00163223 -10.7817395 0.98153595 -11.77154541 0.96083069 C-13.31548981 0.92027809 -13.31548981 0.92027809 -14.890625 0.87890625 C-15.95037537 0.85529526 -17.01012573 0.83168427 -18.10198975 0.80735779 C-21.48479949 0.73082144 -24.86737452 0.64675359 -28.25 0.5625 C-30.54425937 0.5092693 -32.83853018 0.45652897 -35.1328125 0.40429688 C-40.75535337 0.27521984 -46.37772008 0.1399597 -52 0 C-52 -0.33 -52 -0.66 -52 -1 C-45.23764519 -1.19368635 -38.4750039 -1.37107291 -31.71191406 -1.53710938 C-29.41103428 -1.59552381 -27.11024622 -1.65767531 -24.80957031 -1.72363281 C-21.50342508 -1.8177681 -18.19718342 -1.89847833 -14.890625 -1.9765625 C-13.86132874 -2.00875885 -12.83203247 -2.0409552 -11.77154541 -2.0741272 C-10.81085144 -2.09429901 -9.85015747 -2.11447083 -8.86035156 -2.13525391 C-8.01651917 -2.15746002 -7.17268677 -2.17966614 -6.30328369 -2.20254517 C-3.77387096 -1.98011476 -2.17686173 -1.27250575 0 0 Z " fill="#9C9EA1" transform="translate(124,146)"/>
<path d="M0 0 C1.32 0 2.64 0 4 0 C4 4.29 4 8.58 4 13 C2.68 13 1.36 13 0 13 C0 8.71 0 4.42 0 0 Z " fill="#505357" transform="translate(11,29)"/>
<path d="M0 0 C0.99 0.33 1.98 0.66 3 1 C2.67 5.95 2.34 10.9 2 16 C1.01 16 0.02 16 -1 16 C-1.02685095 13.52076199 -1.04676547 11.0418116 -1.0625 8.5625 C-1.07506836 7.50192383 -1.07506836 7.50192383 -1.08789062 6.41992188 C-1.09653588 4.61306441 -1.05220011 2.80612397 -1 1 C-0.67 0.67 -0.34 0.34 0 0 Z " fill="#292D37" transform="translate(19,8)"/>
<path d="M0 0 C1.32 0.33 2.64 0.66 4 1 C3.67 5.62 3.34 10.24 3 15 C2.01 15.33 1.02 15.66 0 16 C0 10.72 0 5.44 0 0 Z " fill="#393D46" transform="translate(19,61)"/>
<path d="M0 0 C0.33 0 0.66 0 1 0 C1.672719 7.86333763 1.01239169 14.58941484 -4 21 C-5.32 21.33 -6.64 21.66 -8 22 C-6.35 18.04 -4.7 14.08 -3 10 C-2.01 10 -1.02 10 0 10 C0 6.7 0 3.4 0 0 Z " fill="#A8AAA9" transform="translate(143,114)"/>
<path d="M0 0 C6.6 0.33 13.2 0.66 20 1 C20 1.33 20 1.66 20 2 C16.04 2 12.08 2 8 2 C8 7.28 8 12.56 8 18 C7.67 18 7.34 18 7 18 C7 12.72 7 7.44 7 2 C4.69 2.33 2.38 2.66 0 3 C0 2.01 0 1.02 0 0 Z " fill="#080909" transform="translate(11,25)"/>
<path d="M0 0 C1.98 0 3.96 0 6 0 C6.28571429 8.57142857 6.28571429 8.57142857 4 12 C3.34 11.67 2.68 11.34 2 11 C1.62109375 9.00390625 1.62109375 9.00390625 1.4375 6.5625 C1.1938825 3.15371795 1.1938825 3.15371795 0 0 Z " fill="#616265" transform="translate(9,116)"/>
<path d="M0 0 C0.33 0 0.66 0 1 0 C1.13277344 0.96421875 1.26554687 1.9284375 1.40234375 2.921875 C1.57894531 4.18515625 1.75554688 5.4484375 1.9375 6.75 C2.19853516 8.62945312 2.19853516 8.62945312 2.46484375 10.546875 C2.86049338 13.09982593 3.30446422 15.5186291 4 18 C0.60728291 14.86076177 -1.4450608 11.34368886 -3 7 C-2.75 4 -2.75 4 -2 2 C-1.34 2 -0.68 2 0 2 C0 1.34 0 0.68 0 0 Z " fill="#212222" transform="translate(49,54)"/>
<path d="M0 0 C0.33 0 0.66 0 1 0 C1.7798151 6.10855163 0.01129393 9.24008627 -3.39453125 14.27734375 C-3.92433594 14.84582031 -4.45414063 15.41429687 -5 16 C-5.99 16 -6.98 16 -8 16 C-7.65066406 15.49210938 -7.30132812 14.98421875 -6.94140625 14.4609375 C-4.14971333 10.23780996 -2.60787082 7.10611485 -2 2 C-1.34 1.34 -0.68 0.68 0 0 Z " fill="#8B8D8E" transform="translate(138,123)"/>
<path d="M0 0 C2 3.75 2 3.75 2 6 C3.32 6.66 4.64 7.32 6 8 C4.68 8 3.36 8 2 8 C2 12.29 2 16.58 2 21 C-0.06723714 17.89914429 -0.24497423 17.27068319 -0.1953125 13.76953125 C-0.18886719 12.96708984 -0.18242187 12.16464844 -0.17578125 11.33789062 C-0.15902344 10.50451172 -0.14226563 9.67113281 -0.125 8.8125 C-0.11597656 7.96751953 -0.10695313 7.12253906 -0.09765625 6.25195312 C-0.07410703 4.16784757 -0.03823647 2.08388783 0 0 Z " fill="#5F6267" transform="translate(9,21)"/>
<path d="M0 0 C0.33 0.66 0.66 1.32 1 2 C-0.1875 5.0625 -0.1875 5.0625 -2 8 C-4.1875 8.875 -4.1875 8.875 -6 9 C-6 9.66 -6 10.32 -6 11 C-7.96466413 12.06775224 -9.96855359 13.06553465 -12 14 C-12.66 13.67 -13.32 13.34 -14 13 C-12.75312408 12.03760548 -11.50235031 11.08025991 -10.25 10.125 C-9.20585937 9.32449219 -9.20585937 9.32449219 -8.140625 8.5078125 C-6 7 -6 7 -3.8125 5.96875 C-1.20249291 4.57374621 -0.86326878 2.73368448 0 0 Z " fill="#CCCCCD" transform="translate(142,132)"/>
<path d="M0 0 C2 1 2 1 3 3 C2.66666667 4.66666667 2.33333333 6.33333333 2 8 C1.96175377 10.33301986 1.95425716 12.66711508 2 15 C1.01 15 0.02 15 -1 15 C-1.02685412 12.68756208 -1.04632841 10.3750373 -1.0625 8.0625 C-1.07410156 6.77472656 -1.08570312 5.48695312 -1.09765625 4.16015625 C-1 1 -1 1 0 0 Z " fill="#747779" transform="translate(23,61)"/>
<path d="M0 0 C0.66 0 1.32 0 2 0 C2.33 1.65 2.66 3.3 3 5 C0.36 6.98 -2.28 8.96 -5 11 C-4.4950001 6.58125084 -2.86980559 4.33267746 0 1 C0 0.67 0 0.34 0 0 Z " fill="#6C6D6D" transform="translate(64,74)"/>
<path d="M0 0 C1.258125 -0.020625 2.51625 -0.04125 3.8125 -0.0625 C4.52019531 -0.07410156 5.22789063 -0.08570312 5.95703125 -0.09765625 C8 0 8 0 11 1 C11 1.66 11 2.32 11 3 C7.7 3 4.4 3 1 3 C0.67 2.01 0.34 1.02 0 0 Z " fill="#070708" transform="translate(77,24)"/>
<path d="M0 0 C0.33 0.99 0.66 1.98 1 3 C-1.25 5.0625 -1.25 5.0625 -4 7 C-6.25 6.875 -6.25 6.875 -8 6 C-8.33 5.34 -8.66 4.68 -9 4 C-8.43410156 3.79503906 -7.86820312 3.59007812 -7.28515625 3.37890625 C-6.55167969 3.10949219 -5.81820312 2.84007812 -5.0625 2.5625 C-4.33160156 2.29566406 -3.60070312 2.02882812 -2.84765625 1.75390625 C-1.01694322 1.14613052 -1.01694322 1.14613052 0 0 Z " fill="#AEAFAE" transform="translate(130,140)"/>
<path d="M0 0 C1.98 0 3.96 0 6 0 C5.01 0.33 4.02 0.66 3 1 C2.87625 2.299375 2.7525 3.59875 2.625 4.9375 C2.4140625 7.15234375 2.4140625 7.15234375 2 9 C1.01 9.495 1.01 9.495 0 10 C0 6.7 0 3.4 0 0 Z " fill="#75787A" transform="translate(22,133)"/>
<path d="M0 0 C1.65 0 3.3 0 5 0 C5 1.65 5 3.3 5 5 C3.35 5 1.7 5 0 5 C0 3.35 0 1.7 0 0 Z " fill="#676A6E" transform="translate(10,91)"/>
<path d="M0 0 C0.33 0 0.66 0 1 0 C1 1.98 1 3.96 1 6 C-0.98 6 -2.96 6 -5 6 C-3.35830472 3.97945196 -1.69088222 1.97956942 0 0 Z " fill="#FDFDFD" transform="translate(137,96)"/>
<path d="M0 0 C0.33 0 0.66 0 1 0 C0.58525633 5.28798182 -0.35224614 8.11690718 -4 12 C-3.33501617 7.61110675 -1.81242323 4.0188515 0 0 Z " fill="#BABBBB" transform="translate(143,125)"/>
<path d="M0 0 C0.66 0 1.32 0 2 0 C4.29633824 3.44450737 4.54016485 5.93812283 5 10 C1.94597912 8.47298956 1.34130519 6.04842088 0 3 C0 2.01 0 1.02 0 0 Z " fill="#ADAFB0" transform="translate(60,104)"/>
<path d="M0 0 C-3.54950034 1.16306443 -6.55823948 0.92365049 -10.25 0.5625 C-11.32765625 0.46066406 -12.4053125 0.35882813 -13.515625 0.25390625 C-14.33546875 0.17011719 -15.1553125 0.08632812 -16 0 C-16 -0.33 -16 -0.66 -16 -1 C-14.08496326 -1.22281874 -12.16783494 -1.42771076 -10.25 -1.625 C-9.18265625 -1.74101562 -8.1153125 -1.85703125 -7.015625 -1.9765625 C-3.96207601 -2.00029475 -2.53837579 -1.61420985 0 0 Z " fill="#969798" transform="translate(124,146)"/>
<path d="M0 0 C3.63 0.66 7.26 1.32 11 2 C7 4 7 4 3.8125 3.25 C1 2 1 2 0 0 Z " fill="#7F8487" transform="translate(18,143)"/>
<path d="M0 0 C0.99 0.33 1.98 0.66 3 1 C2.01 1.495 2.01 1.495 1 2 C1.33 2.99 1.66 3.98 2 5 C1.01 5.33 0.02 5.66 -1 6 C-1.33 4.35 -1.66 2.7 -2 1 C-1.34 0.67 -0.68 0.34 0 0 Z " fill="#5C5C5C" transform="translate(58,94)"/>
</svg>
